<svg width="39" height="39" viewBox="0 0 39 39" fill="none" xmlns="http://www.w3.org/2000/svg">
<path d="M23.3848 2.58984H6.32227C4.30297 2.58984 2.66602 4.2268 2.66602 6.24609V30.6211C2.66602 32.6404 4.30297 34.2773 6.32227 34.2773H23.3848C25.4041 34.2773 27.041 32.6404 27.041 30.6211V6.24609C27.041 4.2268 25.4041 2.58984 23.3848 2.58984Z" stroke="white" stroke-width="2" stroke-linejoin="round"/>
<path d="M8.75977 20.8711H14.8535M8.75977 8.68359H20.9473H8.75977ZM8.75977 14.7773H20.9473H8.75977Z" stroke="white" stroke-width="2" stroke-linecap="round" stroke-linejoin="round"/>
<path d="M29.5455 21.8636C25.3031 21.8636 21.8636 25.3031 21.8636 29.5454C21.8636 33.7878 25.3031 37.2273 29.5455 37.2273C33.7878 37.2273 37.2273 33.7878 37.2273 29.5454C37.2273 25.3031 33.7878 21.8636 29.5455 21.8636ZM33.0909 30.7273H29.5455C29.3887 30.7273 29.2384 30.665 29.1276 30.5542C29.0168 30.4434 28.9546 30.2931 28.9546 30.1363V24.8182C28.9546 24.6614 29.0168 24.5111 29.1276 24.4003C29.2384 24.2895 29.3887 24.2273 29.5455 24.2273C29.7022 24.2273 29.8525 24.2895 29.9633 24.4003C30.0741 24.5111 30.1364 24.6614 30.1364 24.8182V29.5454H33.0909C33.2476 29.5454 33.3979 29.6077 33.5088 29.7185C33.6196 29.8293 33.6818 29.9796 33.6818 30.1363C33.6818 30.2931 33.6196 30.4434 33.5088 30.5542C33.3979 30.665 33.2476 30.7273 33.0909 30.7273Z" fill="white"/>
</svg>
