<svg width="34" height="34" viewBox="0 0 34 34" fill="none" xmlns="http://www.w3.org/2000/svg">
  <path d="M5.0767 6.33348C2.48944 9.22316 1.04091 12.9549 1.00099 16.8334C0.90266 25.6959 8.13827 32.9833 17.0005 33C25.8502 33.0166 33 25.8475 33 17.0001C33 8.28847 26.0377 1.19935 17.3755 1.00019C17.3267 0.998621 17.2782 1.00689 17.2327 1.0245C17.1872 1.04211 17.1457 1.0687 17.1107 1.10268C17.0757 1.13666 17.0479 1.17735 17.029 1.2223C17.01 1.26726 17.0004 1.31557 17.0005 1.36435V8.33347" stroke="white" stroke-width="2" stroke-linecap="round" stroke-linejoin="round"/>
  <path d="M16.17 18.3515L11.0943 11.0937L18.3541 16.1674C18.6854 16.408 18.9094 16.7687 18.9779 17.1723C19.0468 17.5779 18.9532 17.9943 18.7172 18.3315C18.4813 18.6687 18.122 18.8996 17.717 18.9741C17.3135 19.0483 16.8971 18.9614 16.5572 18.7322C16.4076 18.6279 16.2767 18.4992 16.17 18.3515Z" fill="white" stroke="white" stroke-width="2"/>
</svg>
