<svg width="41" height="40" viewBox="0 0 41 40" fill="none" xmlns="http://www.w3.org/2000/svg">
<path d="M12.375 19.5488H38.375M25.375 28.8232V33.4604C25.375 34.6902 24.947 35.8697 24.1851 36.7394C23.4233 37.609 22.3899 38.0976 21.3125 38.0976H5.0625C3.98506 38.0976 2.95175 37.609 2.18988 36.7394C1.42801 35.8697 1 34.6902 1 33.4604V5.6372C1 4.40733 1.42801 3.22785 2.18988 2.3582C2.95175 1.48856 3.98506 1 5.0625 1H20.5C22.7435 1 25.375 3.0763 25.375 5.6372V10.2744V28.8232ZM31.875 28.8232L40 19.5488L31.875 10.2744V28.8232Z" stroke="white" stroke-width="2" stroke-linecap="round" stroke-linejoin="round"/>
</svg>
